%FSLAX33Y33*%
%MOMM*%
%ADD10C,0.254*%
%ADD11C,1.2*%
%ADD12C,1.02*%
D10*
%LNhole_traces*%
G01*
X18542Y17544D03*
X8636Y19050D03*
X7620Y24384D03*
X13946Y22096D03*
X7620Y21336D03*
X8128Y19812D03*
X7620Y22098D03*
X11938Y25146D03*
X7620Y22860D03*
X17745Y8675D03*
X15000Y39806D03*
X15000Y37806D03*
X15000Y41806D03*
X15000Y40806D03*
X7620Y20574D03*
X16554Y19904D03*
X15000Y38806D03*
X7620Y23622D03*
X19000Y26450D03*
X7620Y25146D03*
X16554Y22096D03*
X13946Y19904D03*
X18956Y37806D03*
X15000Y42806D03*
X9144Y18288D03*
X19850Y4000D03*
%LNhole component 394882fa89dce1d5*%
D11*
X22050Y19730D03*
X22050Y27350D03*
X22050Y24810D03*
X22050Y14650D03*
X22050Y22270D03*
X22050Y17190D03*
%LNhole component 16a6f52c2bd1ff97*%
D12*
X1730Y42590D03*
X4270Y42590D03*
X1730Y40050D03*
X4270Y40050D03*
X1730Y37510D03*
X4270Y37510D03*
X1730Y34970D03*
X4270Y34970D03*
X1730Y32430D03*
X4270Y32430D03*
X1730Y29890D03*
X4270Y29890D03*
X1730Y27350D03*
X1730Y24810D03*
X4270Y24810D03*
X1730Y22270D03*
X4270Y22270D03*
X1730Y19730D03*
X4270Y19730D03*
X1730Y17190D03*
X4270Y17190D03*
X1730Y14650D03*
X4270Y14650D03*
X1730Y12110D03*
X4270Y12110D03*
X1730Y9570D03*
X4270Y9570D03*
X1730Y7030D03*
X4270Y7030D03*
X1730Y4490D03*
X4270Y4490D03*
X1730Y1950D03*
X4270Y1950D03*
M02*