%FSLAX33Y33*%
%MOMM*%
%ADD10C,0.0508*%
D10*
%LNbottom silkscreen_traces*%
G01*
X20941Y42457D02*
X20941Y42457D01*
X20927Y42443*
X20921Y42443*
X20921Y42437*
X20907Y42423*
X20881Y42423*
X20881Y42417*
X20867Y42403*
X20861Y42403*
X20861Y42397*
X20847Y42383*
X20821Y42383*
X20821Y42377*
X20807Y42363*
X20801Y42363*
X20801Y42357*
X20787Y42343*
X20761Y42343*
X20761Y42337*
X20747Y42323*
X20741Y42323*
X20741Y42317*
X20727Y42303*
X20721Y42303*
X20721Y42297*
X20707Y42283*
X20701Y42283*
X20701Y42277*
X20687Y42263*
X20661Y42263*
X20661Y42257*
X20647Y42243*
X20621Y42243*
X20621Y42237*
X20607Y42223*
X20601Y42223*
X20601Y42217*
X20587Y42203*
X20561Y42203*
X20561Y42197*
X20547Y42183*
X20521Y42183*
X20521Y42177*
X20507Y42163*
X20501Y42163*
X20501Y42157*
X20487Y42143*
X20481Y42143*
X20481Y42137*
X20467Y42123*
X20441Y42123*
X20441Y42117*
X20427Y42103*
X20421Y42103*
X20421Y42097*
X20407Y42083*
X20401Y42083*
X20401Y42077*
X20387Y42063*
X20361Y42063*
X20361Y42057*
X20347Y42043*
X20341Y42043*
X20341Y42037*
X20327Y42023*
X20301Y42023*
X20301Y42017*
X20287Y42003*
X20261Y42003*
X20261Y41977*
X20247Y41963*
X20221Y41963*
X20221Y41957*
X20207Y41943*
X20181Y41943*
X20181Y41937*
X20167Y41923*
X20035Y41923*
X20021Y41937*
X20021Y41943*
X19975Y41943*
X19961Y41957*
X19961Y41963*
X19935Y41963*
X19921Y41977*
X19921Y41983*
X19915Y41983*
X19901Y41997*
X19901Y42003*
X19855Y42003*
X19841Y42017*
X19841Y42023*
X19795Y42023*
X19781Y42037*
X19781Y42043*
X19735Y42043*
X19721Y42057*
X19721Y42063*
X19675Y42063*
X19661Y42077*
X19661Y42083*
X19635Y42083*
X19621Y42097*
X19621Y42103*
X19595Y42103*
X19581Y42117*
X19581Y42123*
X19555Y42123*
X19541Y42137*
X19541Y42143*
X19495Y42143*
X19481Y42157*
X19481Y42163*
X19475Y42163*
X19461Y42177*
X19461Y42183*
X19415Y42183*
X19401Y42197*
X19401Y42243*
X19395Y42243*
X19381Y42257*
X19381Y42383*
X19375Y42383*
X19361Y42397*
X19361Y42403*
X19355Y42403*
X19341Y42417*
X19341Y42523*
X19335Y42523*
X19321Y42537*
X19321Y42643*
X19315Y42643*
X19301Y42657*
X19301Y42783*
X19295Y42783*
X19281Y42797*
X19281Y42883*
X19275Y42883*
X19261Y42897*
X19261Y42983*
X19255Y42983*
X19241Y42997*
X19241Y43103*
X19235Y43103*
X19221Y43117*
X19221Y43183*
X19215Y43183*
X19201Y43197*
X19201Y43203*
X19195Y43203*
X19181Y43217*
X19181Y43223*
X18201Y43223*
X18201Y43217*
X18187Y43203*
X18181Y43203*
X18181Y43197*
X18167Y43183*
X18161Y43183*
X18161Y43097*
X18147Y43083*
X18141Y43083*
X18141Y42977*
X18127Y42963*
X18121Y42963*
X18121Y42857*
X18107Y42843*
X18101Y42843*
X18101Y42737*
X18087Y42723*
X18081Y42723*
X18081Y42717*
X18067Y42703*
X18061Y42703*
X18061Y42577*
X18047Y42563*
X18041Y42563*
X18041Y42457*
X18027Y42443*
X18021Y42443*
X18021Y42357*
X18007Y42343*
X18001Y42343*
X18001Y42257*
X17987Y42243*
X17981Y42243*
X17981Y42197*
X17967Y42183*
X17921Y42183*
X17921Y42177*
X17907Y42163*
X17881Y42163*
X17881Y42157*
X17867Y42143*
X17841Y42143*
X17841Y42137*
X17827Y42123*
X17781Y42123*
X17781Y42117*
X17767Y42103*
X17761Y42103*
X17761Y42097*
X17747Y42083*
X17721Y42083*
X17721Y42077*
X17707Y42063*
X17661Y42063*
X17661Y42057*
X17647Y42043*
X17601Y42043*
X17601Y42037*
X17587Y42023*
X17541Y42023*
X17541Y42017*
X17527Y42003*
X17481Y42003*
X17481Y41997*
X17467Y41983*
X17461Y41983*
X17461Y41977*
X17447Y41963*
X17421Y41963*
X17421Y41957*
X17407Y41943*
X17361Y41943*
X17361Y41937*
X17347Y41923*
X17195Y41923*
X17181Y41937*
X17181Y41943*
X17175Y41943*
X17161Y41957*
X17161Y41963*
X17135Y41963*
X17121Y41977*
X17121Y41983*
X17115Y41983*
X17101Y41997*
X17101Y42003*
X17095Y42003*
X17081Y42017*
X17081Y42023*
X17055Y42023*
X17041Y42037*
X17041Y42043*
X17035Y42043*
X17021Y42057*
X17021Y42063*
X16995Y42063*
X16981Y42077*
X16981Y42083*
X16975Y42083*
X16961Y42097*
X16961Y42103*
X16935Y42103*
X16921Y42117*
X16921Y42123*
X16915Y42123*
X16901Y42137*
X16901Y42143*
X16895Y42143*
X16881Y42157*
X16881Y42163*
X16875Y42163*
X16861Y42177*
X16861Y42183*
X16835Y42183*
X16821Y42197*
X16821Y42203*
X16795Y42203*
X16781Y42217*
X16781Y42223*
X16755Y42223*
X16741Y42237*
X16741Y42243*
X16735Y42243*
X16721Y42257*
X16721Y42263*
X16695Y42263*
X16681Y42277*
X16681Y42283*
X16675Y42283*
X16661Y42297*
X16661Y42303*
X16655Y42303*
X16641Y42317*
X16641Y42323*
X16635Y42323*
X16621Y42337*
X16621Y42343*
X16595Y42343*
X16581Y42357*
X16581Y42363*
X16575Y42363*
X16561Y42377*
X16561Y42383*
X16535Y42383*
X16521Y42397*
X16521Y42403*
X16515Y42403*
X16501Y42417*
X16501Y42423*
X16475Y42423*
X16461Y42437*
X16461Y42443*
X16455Y42443*
X16441Y42457*
X16441Y42463*
X16361Y42463*
X16361Y42457*
X16347Y42443*
X16341Y42443*
X16341Y42437*
X16327Y42423*
X16321Y42423*
X16321Y42417*
X16307Y42403*
X16301Y42403*
X16301Y42397*
X16287Y42383*
X16281Y42383*
X16281Y42377*
X16267Y42363*
X16261Y42363*
X16261Y42357*
X16247Y42343*
X16241Y42343*
X16241Y42337*
X16227Y42323*
X16221Y42323*
X16221Y42317*
X16207Y42303*
X16201Y42303*
X16201Y42297*
X16187Y42283*
X16181Y42283*
X16181Y42257*
X16167Y42243*
X16141Y42243*
X16141Y42237*
X16127Y42223*
X16121Y42223*
X16121Y42217*
X16107Y42203*
X16101Y42203*
X16101Y42197*
X16087Y42183*
X16081Y42183*
X16081Y42177*
X16067Y42163*
X16061Y42163*
X16061Y42157*
X16047Y42143*
X16041Y42143*
X16041Y42137*
X16027Y42123*
X16021Y42123*
X16021Y42097*
X16007Y42083*
X16001Y42083*
X16001Y42077*
X15987Y42063*
X15961Y42063*
X15961Y42057*
X15947Y42043*
X15941Y42043*
X15941Y42037*
X15927Y42023*
X15921Y42023*
X15921Y42017*
X15907Y42003*
X15901Y42003*
X15901Y41997*
X15887Y41983*
X15881Y41983*
X15881Y41977*
X15867Y41963*
X15861Y41963*
X15861Y41957*
X15847Y41943*
X15841Y41943*
X15841Y41937*
X15827Y41923*
X15821Y41923*
X15821Y41917*
X15807Y41903*
X15801Y41903*
X15801Y41897*
X15787Y41883*
X15781Y41883*
X15781Y41877*
X15767Y41863*
X15761Y41863*
X15761Y41857*
X15747Y41843*
X15741Y41843*
X15741Y41837*
X15727Y41823*
X15721Y41823*
X15721Y41817*
X15707Y41803*
X15701Y41803*
X15701Y41797*
X15687Y41783*
X15681Y41783*
X15681Y41743*
X15687Y41743*
X15701Y41729*
X15701Y41703*
X15707Y41703*
X15721Y41689*
X15721Y41663*
X15727Y41663*
X15741Y41649*
X15741Y41643*
X15747Y41643*
X15761Y41629*
X15761Y41623*
X15767Y41623*
X15781Y41609*
X15781Y41583*
X15787Y41583*
X15801Y41569*
X15801Y41563*
X15807Y41563*
X15821Y41549*
X15821Y41543*
X15827Y41543*
X15841Y41529*
X15841Y41503*
X15847Y41503*
X15861Y41489*
X15861Y41483*
X15867Y41483*
X15881Y41469*
X15881Y41443*
X15887Y41443*
X15901Y41429*
X15901Y41403*
X15927Y41403*
X15941Y41389*
X15941Y41383*
X15947Y41383*
X15961Y41369*
X15961Y41343*
X15967Y41343*
X15981Y41329*
X15981Y41303*
X15987Y41303*
X16001Y41289*
X16001Y41283*
X16007Y41283*
X16021Y41269*
X16021Y41243*
X16027Y41243*
X16041Y41229*
X16041Y41223*
X16047Y41223*
X16061Y41209*
X16061Y41183*
X16067Y41183*
X16081Y41169*
X16081Y41163*
X16087Y41163*
X16101Y41149*
X16101Y41143*
X16107Y41143*
X16121Y41129*
X16121Y41103*
X16127Y41103*
X16141Y41089*
X16141Y41083*
X16147Y41083*
X16161Y41069*
X16161Y41043*
X16167Y41043*
X16181Y41029*
X16181Y41003*
X16187Y41003*
X16201Y40989*
X16201Y40983*
X16207Y40983*
X16221Y40969*
X16221Y40837*
X16207Y40823*
X16201Y40823*
X16201Y40777*
X16187Y40763*
X16181Y40763*
X16181Y40717*
X16167Y40703*
X16161Y40703*
X16161Y40677*
X16147Y40663*
X16141Y40663*
X16141Y40617*
X16127Y40603*
X16121Y40603*
X16121Y40577*
X16107Y40563*
X16101Y40563*
X16101Y40557*
X16087Y40543*
X16081Y40543*
X16081Y40497*
X16067Y40483*
X16061Y40483*
X16061Y40457*
X16047Y40443*
X16041Y40443*
X16041Y40397*
X16027Y40383*
X16021Y40383*
X16021Y40357*
X16007Y40343*
X16001Y40343*
X16001Y40317*
X15987Y40303*
X15981Y40303*
X15981Y40257*
X15967Y40243*
X15961Y40243*
X15961Y40217*
X15947Y40203*
X15941Y40203*
X15941Y40197*
X15927Y40183*
X15921Y40183*
X15921Y40177*
X15907Y40163*
X15821Y40163*
X15821Y40157*
X15807Y40143*
X15741Y40143*
X15741Y40137*
X15727Y40123*
X15681Y40123*
X15681Y40117*
X15667Y40103*
X15561Y40103*
X15561Y40097*
X15547Y40083*
X15441Y40083*
X15441Y40077*
X15427Y40063*
X15321Y40063*
X15321Y40057*
X15307Y40043*
X15181Y40043*
X15181Y40037*
X15167Y40023*
X15041Y40023*
X15041Y40017*
X15027Y40003*
X15001Y40003*
X15001Y39997*
X14987Y39983*
X14961Y39983*
X14961Y39977*
X14947Y39963*
X14941Y39963*
X14941Y39957*
X14927Y39943*
X14921Y39943*
X14921Y38983*
X14927Y38983*
X14941Y38969*
X14941Y38963*
X14967Y38963*
X14981Y38949*
X14981Y38943*
X15067Y38943*
X15081Y38929*
X15081Y38923*
X15107Y38923*
X15121Y38909*
X15121Y38903*
X15227Y38903*
X15241Y38889*
X15241Y38883*
X15287Y38883*
X15301Y38869*
X15301Y38863*
X15407Y38863*
X15421Y38849*
X15421Y38843*
X15527Y38843*
X15541Y38829*
X15541Y38823*
X15667Y38823*
X15681Y38809*
X15681Y38803*
X15787Y38803*
X15801Y38789*
X15801Y38783*
X15887Y38783*
X15901Y38769*
X15901Y38763*
X15907Y38763*
X15921Y38749*
X15921Y38703*
X15947Y38703*
X15961Y38689*
X15961Y38643*
X15967Y38643*
X15981Y38629*
X15981Y38583*
X15987Y38583*
X16001Y38569*
X16001Y38523*
X16007Y38523*
X16021Y38509*
X16021Y38483*
X16027Y38483*
X16041Y38469*
X16041Y38423*
X16047Y38423*
X16061Y38409*
X16061Y38363*
X16067Y38363*
X16081Y38349*
X16081Y38303*
X16107Y38303*
X16121Y38289*
X16121Y38243*
X16127Y38243*
X16141Y38229*
X16141Y38183*
X16147Y38183*
X16161Y38169*
X16161Y38123*
X16167Y38123*
X16181Y38109*
X16181Y38063*
X16187Y38063*
X16201Y38049*
X16201Y37937*
X16187Y37923*
X16181Y37923*
X16181Y37897*
X16167Y37883*
X16161Y37883*
X16161Y37877*
X16147Y37863*
X16141Y37863*
X16141Y37837*
X16127Y37823*
X16121Y37823*
X16121Y37817*
X16107Y37803*
X16101Y37803*
X16101Y37797*
X16087Y37783*
X16081Y37783*
X16081Y37757*
X16067Y37743*
X16061Y37743*
X16061Y37737*
X16047Y37723*
X16041Y37723*
X16041Y37717*
X16027Y37703*
X16021Y37703*
X16021Y37677*
X16007Y37663*
X16001Y37663*
X16001Y37657*
X15987Y37643*
X15981Y37643*
X15981Y37617*
X15967Y37603*
X15961Y37603*
X15961Y37577*
X15947Y37563*
X15941Y37563*
X15941Y37557*
X15927Y37543*
X15921Y37543*
X15921Y37537*
X15907Y37523*
X15901Y37523*
X15901Y37497*
X15887Y37483*
X15881Y37483*
X15881Y37457*
X15867Y37443*
X15861Y37443*
X15861Y37437*
X15847Y37423*
X15841Y37423*
X15841Y37397*
X15827Y37383*
X15821Y37383*
X15821Y37377*
X15807Y37363*
X15801Y37363*
X15801Y37357*
X15787Y37343*
X15781Y37343*
X15781Y37317*
X15767Y37303*
X15761Y37303*
X15761Y37297*
X15747Y37283*
X15741Y37283*
X15741Y37277*
X15727Y37263*
X15721Y37263*
X15721Y37237*
X15707Y37223*
X15701Y37223*
X15701Y37217*
X15687Y37203*
X15681Y37203*
X15681Y37163*
X15687Y37163*
X15701Y37149*
X15701Y37143*
X15707Y37143*
X15721Y37129*
X15721Y37123*
X15727Y37123*
X15741Y37109*
X15741Y37103*
X15747Y37103*
X15761Y37089*
X15761Y37083*
X15767Y37083*
X15781Y37069*
X15781Y37063*
X15787Y37063*
X15801Y37049*
X15801Y37043*
X15807Y37043*
X15821Y37029*
X15821Y37023*
X15827Y37023*
X15841Y37009*
X15841Y37003*
X15847Y37003*
X15861Y36989*
X15861Y36983*
X15867Y36983*
X15881Y36969*
X15881Y36963*
X15887Y36963*
X15901Y36949*
X15901Y36943*
X15907Y36943*
X15921Y36929*
X15921Y36923*
X15927Y36923*
X15941Y36909*
X15941Y36903*
X15947Y36903*
X15961Y36889*
X15961Y36883*
X15967Y36883*
X15981Y36869*
X15981Y36863*
X15987Y36863*
X16001Y36849*
X16001Y36843*
X16007Y36843*
X16021Y36829*
X16021Y36823*
X16027Y36823*
X16041Y36809*
X16041Y36803*
X16047Y36803*
X16061Y36789*
X16061Y36783*
X16067Y36783*
X16081Y36769*
X16081Y36763*
X16087Y36763*
X16101Y36749*
X16101Y36743*
X16107Y36743*
X16121Y36729*
X16121Y36723*
X16127Y36723*
X16141Y36709*
X16141Y36703*
X16147Y36703*
X16161Y36689*
X16161Y36683*
X16167Y36683*
X16181Y36669*
X16181Y36663*
X16187Y36663*
X16201Y36649*
X16201Y36643*
X16207Y36643*
X16221Y36629*
X16221Y36623*
X16227Y36623*
X16241Y36609*
X16241Y36603*
X16247Y36603*
X16261Y36589*
X16261Y36583*
X16267Y36583*
X16281Y36569*
X16281Y36563*
X16287Y36563*
X16301Y36549*
X16301Y36543*
X16307Y36543*
X16321Y36529*
X16321Y36523*
X16327Y36523*
X16341Y36509*
X16341Y36503*
X16347Y36503*
X16361Y36489*
X16361Y36483*
X16367Y36483*
X16381Y36469*
X16381Y36463*
X16421Y36463*
X16421Y36469*
X16435Y36483*
X16441Y36483*
X16441Y36489*
X16455Y36503*
X16481Y36503*
X16481Y36509*
X16495Y36523*
X16521Y36523*
X16521Y36529*
X16535Y36543*
X16541Y36543*
X16541Y36549*
X16555Y36563*
X16561Y36563*
X16561Y36569*
X16575Y36583*
X16581Y36583*
X16581Y36589*
X16595Y36603*
X16621Y36603*
X16621Y36609*
X16635Y36623*
X16661Y36623*
X16661Y36629*
X16675Y36643*
X16681Y36643*
X16681Y36649*
X16695Y36663*
X16721Y36663*
X16721Y36669*
X16735Y36683*
X16741Y36683*
X16741Y36689*
X16755Y36703*
X16781Y36703*
X16781Y36729*
X16795Y36743*
X16821Y36743*
X16821Y36749*
X16835Y36763*
X16841Y36763*
X16841Y36769*
X16855Y36783*
X16881Y36783*
X16881Y36789*
X16895Y36803*
X16921Y36803*
X16921Y36809*
X16935Y36823*
X16941Y36823*
X16941Y36829*
X16955Y36843*
X16981Y36843*
X16981Y36849*
X16995Y36863*
X17021Y36863*
X17021Y36869*
X17035Y36883*
X17041Y36883*
X17041Y36889*
X17055Y36903*
X17061Y36903*
X17061Y36909*
X17075Y36923*
X17101Y36923*
X17101Y36929*
X17115Y36943*
X17121Y36943*
X17121Y36949*
X17135Y36963*
X17141Y36963*
X17141Y36969*
X17155Y36983*
X17247Y36983*
X17261Y36969*
X17261Y36963*
X17267Y36963*
X17281Y36949*
X17281Y36943*
X17307Y36943*
X17321Y36929*
X17321Y36923*
X17327Y36923*
X17341Y36909*
X17341Y36903*
X17367Y36903*
X17381Y36889*
X17381Y36883*
X17387Y36883*
X17401Y36869*
X17401Y36863*
X17447Y36863*
X17461Y36849*
X17461Y36843*
X17487Y36843*
X17501Y36829*
X17501Y36823*
X17527Y36823*
X17541Y36809*
X17541Y36803*
X17601Y36803*
X17601Y36829*
X17615Y36843*
X17621Y36843*
X17621Y36869*
X17635Y36883*
X17641Y36883*
X17641Y36929*
X17655Y36943*
X17661Y36943*
X17661Y36989*
X17675Y37003*
X17681Y37003*
X17681Y37049*
X17695Y37063*
X17721Y37063*
X17721Y37109*
X17735Y37123*
X17741Y37123*
X17741Y37169*
X17755Y37183*
X17761Y37183*
X17761Y37229*
X17775Y37243*
X17781Y37243*
X17781Y37269*
X17795Y37283*
X17801Y37283*
X17801Y37309*
X17815Y37323*
X17821Y37323*
X17821Y37369*
X17835Y37383*
X17841Y37383*
X17841Y37409*
X17855Y37423*
X17861Y37423*
X17861Y37469*
X17875Y37483*
X17881Y37483*
X17881Y37489*
X17895Y37503*
X17901Y37503*
X17901Y37549*
X17915Y37563*
X17921Y37563*
X17921Y37609*
X17935Y37623*
X17941Y37623*
X17941Y37669*
X17955Y37683*
X17961Y37683*
X17961Y37709*
X17975Y37723*
X17981Y37723*
X17981Y37769*
X17995Y37783*
X18001Y37783*
X18001Y37809*
X18015Y37823*
X18021Y37823*
X18021Y37829*
X18035Y37843*
X18041Y37843*
X18041Y37869*
X18055Y37883*
X18061Y37883*
X18061Y37929*
X18075Y37943*
X18081Y37943*
X18081Y37969*
X18095Y37983*
X18101Y37983*
X18101Y38029*
X18115Y38043*
X18121Y38043*
X18121Y38089*
X18135Y38103*
X18141Y38103*
X18141Y38149*
X18155Y38163*
X18161Y38163*
X18161Y38209*
X18175Y38223*
X18181Y38223*
X18181Y38249*
X18195Y38263*
X18201Y38263*
X18201Y38269*
X18215Y38283*
X18221Y38283*
X18221Y38329*
X18235Y38343*
X18241Y38343*
X18241Y38369*
X18255Y38383*
X18261Y38383*
X18261Y38429*
X18275Y38443*
X18261Y38457*
X18261Y38483*
X18255Y38483*
X18241Y38497*
X18241Y38503*
X18215Y38503*
X18201Y38517*
X18201Y38523*
X18195Y38523*
X18181Y38537*
X18181Y38543*
X18155Y38543*
X18141Y38557*
X18141Y38563*
X18115Y38563*
X18101Y38577*
X18101Y38583*
X18095Y38583*
X18081Y38597*
X18081Y38603*
X18055Y38603*
X18041Y38617*
X18041Y38623*
X18035Y38623*
X18021Y38637*
X18021Y38643*
X17995Y38643*
X17981Y38657*
X17981Y38663*
X17975Y38663*
X17961Y38677*
X17961Y38703*
X17955Y38703*
X17941Y38717*
X17941Y38723*
X17935Y38723*
X17921Y38737*
X17921Y38743*
X17915Y38743*
X17901Y38757*
X17901Y38763*
X17895Y38763*
X17881Y38777*
X17881Y38783*
X17875Y38783*
X17861Y38797*
X17861Y38803*
X17855Y38803*
X17841Y38817*
X17841Y38843*
X17835Y38843*
X17821Y38857*
X17821Y38863*
X17815Y38863*
X17801Y38877*
X17801Y38903*
X17795Y38903*
X17781Y38917*
X17781Y38923*
X17775Y38923*
X17761Y38937*
X17761Y38963*
X17755Y38963*
X17741Y38977*
X17741Y39023*
X17735Y39023*
X17721Y39037*
X17721Y39063*
X17715Y39063*
X17701Y39077*
X17701Y39083*
X17695Y39083*
X17681Y39097*
X17681Y39143*
X17675Y39143*
X17661Y39157*
X17661Y39263*
X17655Y39263*
X17641Y39277*
X17641Y39649*
X17655Y39663*
X17661Y39663*
X17661Y39749*
X17675Y39763*
X17681Y39763*
X17681Y39829*
X17695Y39843*
X17701Y39843*
X17701Y39849*
X17715Y39863*
X17721Y39863*
X17721Y39889*
X17735Y39903*
X17741Y39903*
X17741Y39949*
X17755Y39963*
X17761Y39963*
X17761Y39989*
X17775Y40003*
X17781Y40003*
X17781Y40009*
X17795Y40023*
X17801Y40023*
X17801Y40049*
X17815Y40063*
X17821Y40063*
X17821Y40069*
X17835Y40083*
X17841Y40083*
X17841Y40109*
X17855Y40123*
X17861Y40123*
X17861Y40129*
X17875Y40143*
X17881Y40143*
X17881Y40149*
X17895Y40163*
X17901Y40163*
X17901Y40169*
X17915Y40183*
X17921Y40183*
X17921Y40189*
X17935Y40203*
X17941Y40203*
X17941Y40209*
X17955Y40223*
X17961Y40223*
X17961Y40229*
X17975Y40243*
X17981Y40243*
X17981Y40249*
X17995Y40263*
X18001Y40263*
X18001Y40269*
X18015Y40283*
X18021Y40283*
X18021Y40289*
X18035Y40303*
X18061Y40303*
X18061Y40309*
X18075Y40323*
X18081Y40323*
X18081Y40329*
X18095Y40343*
X18121Y40343*
X18121Y40349*
X18135Y40363*
X18161Y40363*
X18161Y40389*
X18175Y40403*
X18201Y40403*
X18201Y40409*
X18215Y40423*
X18241Y40423*
X18241Y40429*
X18255Y40443*
X18301Y40443*
X18301Y40449*
X18315Y40463*
X18381Y40463*
X18381Y40469*
X18395Y40483*
X18481Y40483*
X18481Y40489*
X18495Y40503*
X18887Y40503*
X18901Y40489*
X18901Y40483*
X18987Y40483*
X19001Y40469*
X19001Y40463*
X19067Y40463*
X19081Y40449*
X19081Y40443*
X19107Y40443*
X19121Y40429*
X19121Y40423*
X19147Y40423*
X19161Y40409*
X19161Y40403*
X19187Y40403*
X19201Y40389*
X19201Y40383*
X19207Y40383*
X19221Y40369*
X19221Y40363*
X19247Y40363*
X19261Y40349*
X19261Y40343*
X19287Y40343*
X19301Y40329*
X19301Y40323*
X19307Y40323*
X19321Y40309*
X19321Y40303*
X19327Y40303*
X19341Y40289*
X19341Y40283*
X19367Y40283*
X19381Y40269*
X19381Y40263*
X19387Y40263*
X19401Y40249*
X19401Y40243*
X19407Y40243*
X19421Y40229*
X19421Y40223*
X19427Y40223*
X19441Y40209*
X19441Y40203*
X19447Y40203*
X19461Y40189*
X19461Y40183*
X19467Y40183*
X19481Y40169*
X19481Y40163*
X19487Y40163*
X19501Y40149*
X19501Y40143*
X19507Y40143*
X19521Y40129*
X19521Y40103*
X19527Y40103*
X19541Y40089*
X19541Y40083*
X19547Y40083*
X19561Y40069*
X19561Y40043*
X19567Y40043*
X19581Y40029*
X19581Y40023*
X19587Y40023*
X19601Y40009*
X19601Y40003*
X19607Y40003*
X19621Y39989*
X19621Y39943*
X19627Y39943*
X19641Y39929*
X19641Y39903*
X19647Y39903*
X19661Y39889*
X19661Y39843*
X19667Y39843*
X19681Y39829*
X19681Y39783*
X19687Y39783*
X19701Y39769*
X19701Y39703*
X19707Y39703*
X19721Y39689*
X19721Y39523*
X19727Y39523*
X19741Y39509*
X19741Y39417*
X19727Y39403*
X19721Y39403*
X19721Y39237*
X19707Y39223*
X19701Y39223*
X19701Y39157*
X19687Y39143*
X19681Y39143*
X19681Y39097*
X19667Y39083*
X19661Y39083*
X19661Y39037*
X19647Y39023*
X19641Y39023*
X19641Y38997*
X19627Y38983*
X19621Y38983*
X19621Y38937*
X19607Y38923*
X19601Y38923*
X19601Y38917*
X19587Y38903*
X19581Y38903*
X19581Y38877*
X19567Y38863*
X19561Y38863*
X19561Y38857*
X19547Y38843*
X19541Y38843*
X19541Y38837*
X19527Y38823*
X19521Y38823*
X19521Y38797*
X19507Y38783*
X19501Y38783*
X19501Y38777*
X19487Y38763*
X19481Y38763*
X19481Y38757*
X19467Y38743*
X19461Y38743*
X19461Y38737*
X19447Y38723*
X19441Y38723*
X19441Y38717*
X19427Y38703*
X19421Y38703*
X19421Y38697*
X19407Y38683*
X19401Y38683*
X19401Y38677*
X19387Y38663*
X19381Y38663*
X19381Y38657*
X19367Y38643*
X19361Y38643*
X19361Y38637*
X19347Y38623*
X19321Y38623*
X19321Y38617*
X19307Y38603*
X19301Y38603*
X19301Y38597*
X19287Y38583*
X19261Y38583*
X19261Y38577*
X19247Y38563*
X19241Y38563*
X19241Y38557*
X19227Y38543*
X19201Y38543*
X19201Y38537*
X19187Y38523*
X19181Y38523*
X19181Y38517*
X19167Y38503*
X19141Y38503*
X19141Y38497*
X19127Y38483*
X19121Y38483*
X19121Y38457*
X19107Y38443*
X19121Y38429*
X19121Y38383*
X19127Y38383*
X19141Y38369*
X19141Y38323*
X19147Y38323*
X19161Y38309*
X19161Y38283*
X19167Y38283*
X19181Y38269*
X19181Y38223*
X19187Y38223*
X19201Y38209*
X19201Y38183*
X19207Y38183*
X19221Y38169*
X19221Y38123*
X19227Y38123*
X19241Y38109*
X19241Y38063*
X19267Y38063*
X19281Y38049*
X19281Y38023*
X19287Y38023*
X19301Y38009*
X19301Y37963*
X19307Y37963*
X19321Y37949*
X19321Y37903*
X19327Y37903*
X19341Y37889*
X19341Y37843*
X19347Y37843*
X19361Y37829*
X19361Y37783*
X19367Y37783*
X19381Y37769*
X19381Y37723*
X19387Y37723*
X19401Y37709*
X19401Y37703*
X19407Y37703*
X19421Y37689*
X19421Y37663*
X19427Y37663*
X19441Y37649*
X19441Y37603*
X19447Y37603*
X19461Y37589*
X19461Y37583*
X19467Y37583*
X19481Y37569*
X19481Y37523*
X19487Y37523*
X19501Y37509*
X19501Y37483*
X19507Y37483*
X19521Y37469*
X19521Y37423*
X19527Y37423*
X19541Y37409*
X19541Y37363*
X19547Y37363*
X19561Y37349*
X19561Y37303*
X19567Y37303*
X19581Y37289*
X19581Y37283*
X19587Y37283*
X19601Y37269*
X19601Y37223*
X19607Y37223*
X19621Y37209*
X19621Y37183*
X19627Y37183*
X19641Y37169*
X19641Y37123*
X19647Y37123*
X19661Y37109*
X19661Y37063*
X19667Y37063*
X19681Y37049*
X19681Y37023*
X19687Y37023*
X19701Y37009*
X19701Y36963*
X19707Y36963*
X19721Y36949*
X19721Y36923*
X19727Y36923*
X19741Y36909*
X19741Y36883*
X19747Y36883*
X19761Y36869*
X19761Y36863*
X19767Y36863*
X19781Y36849*
X19781Y36803*
X19821Y36803*
X19821Y36809*
X19835Y36823*
X19881Y36823*
X19881Y36829*
X19895Y36843*
X19921Y36843*
X19921Y36849*
X19935Y36863*
X19961Y36863*
X19961Y36869*
X19975Y36883*
X19981Y36883*
X19981Y36889*
X19995Y36903*
X20021Y36903*
X20021Y36909*
X20035Y36923*
X20061Y36923*
X20061Y36929*
X20075Y36943*
X20081Y36943*
X20081Y36949*
X20095Y36963*
X20121Y36963*
X20121Y36969*
X20135Y36983*
X20227Y36983*
X20241Y36969*
X20241Y36963*
X20247Y36963*
X20261Y36949*
X20261Y36943*
X20267Y36943*
X20281Y36929*
X20281Y36923*
X20307Y36923*
X20321Y36909*
X20321Y36903*
X20327Y36903*
X20341Y36889*
X20341Y36883*
X20347Y36883*
X20361Y36869*
X20361Y36863*
X20387Y36863*
X20401Y36849*
X20401Y36843*
X20407Y36843*
X20421Y36829*
X20421Y36823*
X20447Y36823*
X20461Y36809*
X20461Y36803*
X20487Y36803*
X20501Y36789*
X20501Y36783*
X20507Y36783*
X20521Y36769*
X20521Y36763*
X20547Y36763*
X20561Y36749*
X20561Y36743*
X20567Y36743*
X20581Y36729*
X20581Y36723*
X20587Y36723*
X20601Y36709*
X20601Y36703*
X20627Y36703*
X20641Y36689*
X20641Y36683*
X20647Y36683*
X20661Y36669*
X20661Y36663*
X20687Y36663*
X20701Y36649*
X20701Y36643*
X20707Y36643*
X20721Y36629*
X20721Y36623*
X20747Y36623*
X20761Y36609*
X20761Y36603*
X20767Y36603*
X20781Y36589*
X20781Y36583*
X20807Y36583*
X20821Y36569*
X20821Y36563*
X20827Y36563*
X20841Y36549*
X20841Y36543*
X20847Y36543*
X20861Y36529*
X20861Y36523*
X20887Y36523*
X20901Y36509*
X20901Y36503*
X20927Y36503*
X20941Y36489*
X20941Y36483*
X20947Y36483*
X20961Y36469*
X20961Y36463*
X21001Y36463*
X21001Y36469*
X21015Y36483*
X21021Y36483*
X21021Y36489*
X21035Y36503*
X21041Y36503*
X21041Y36509*
X21055Y36523*
X21061Y36523*
X21061Y36529*
X21075Y36543*
X21081Y36543*
X21081Y36549*
X21095Y36563*
X21101Y36563*
X21101Y36569*
X21115Y36583*
X21121Y36583*
X21121Y36589*
X21135Y36603*
X21141Y36603*
X21141Y36609*
X21155Y36623*
X21161Y36623*
X21161Y36629*
X21175Y36643*
X21181Y36643*
X21181Y36649*
X21195Y36663*
X21201Y36663*
X21201Y36669*
X21215Y36683*
X21221Y36683*
X21221Y36689*
X21235Y36703*
X21241Y36703*
X21241Y36709*
X21255Y36723*
X21261Y36723*
X21261Y36729*
X21275Y36743*
X21281Y36743*
X21281Y36749*
X21295Y36763*
X21301Y36763*
X21301Y36769*
X21315Y36783*
X21321Y36783*
X21321Y36789*
X21335Y36803*
X21341Y36803*
X21341Y36809*
X21355Y36823*
X21361Y36823*
X21361Y36829*
X21375Y36843*
X21381Y36843*
X21381Y36849*
X21395Y36863*
X21401Y36863*
X21401Y36869*
X21415Y36883*
X21421Y36883*
X21421Y36889*
X21435Y36903*
X21441Y36903*
X21441Y36909*
X21455Y36923*
X21461Y36923*
X21461Y36929*
X21475Y36943*
X21481Y36943*
X21481Y36949*
X21495Y36963*
X21501Y36963*
X21501Y36969*
X21515Y36983*
X21521Y36983*
X21521Y36989*
X21535Y37003*
X21541Y37003*
X21541Y37009*
X21555Y37023*
X21561Y37023*
X21561Y37029*
X21575Y37043*
X21581Y37043*
X21581Y37049*
X21595Y37063*
X21601Y37063*
X21601Y37069*
X21615Y37083*
X21621Y37083*
X21621Y37089*
X21635Y37103*
X21641Y37103*
X21641Y37109*
X21655Y37123*
X21661Y37123*
X21661Y37129*
X21675Y37143*
X21681Y37143*
X21681Y37149*
X21695Y37163*
X21701Y37163*
X21701Y37203*
X21695Y37203*
X21681Y37217*
X21681Y37223*
X21675Y37223*
X21661Y37237*
X21661Y37243*
X21655Y37243*
X21641Y37257*
X21641Y37263*
X21635Y37263*
X21621Y37277*
X21621Y37303*
X21615Y37303*
X21601Y37317*
X21601Y37343*
X21595Y37343*
X21581Y37357*
X21581Y37363*
X21575Y37363*
X21561Y37377*
X21561Y37403*
X21555Y37403*
X21541Y37417*
X21541Y37423*
X21535Y37423*
X21521Y37437*
X21521Y37443*
X21515Y37443*
X21501Y37457*
X21501Y37483*
X21495Y37483*
X21481Y37497*
X21481Y37503*
X21475Y37503*
X21461Y37517*
X21461Y37543*
X21455Y37543*
X21441Y37557*
X21441Y37563*
X21435Y37563*
X21421Y37577*
X21421Y37603*
X21415Y37603*
X21401Y37617*
X21401Y37623*
X21395Y37623*
X21381Y37637*
X21381Y37663*
X21375Y37663*
X21361Y37677*
X21361Y37683*
X21355Y37683*
X21341Y37697*
X21341Y37703*
X21335Y37703*
X21321Y37717*
X21321Y37743*
X21315Y37743*
X21301Y37757*
X21301Y37763*
X21295Y37763*
X21281Y37777*
X21281Y37803*
X21275Y37803*
X21261Y37817*
X21261Y37843*
X21255Y37843*
X21241Y37857*
X21241Y37863*
X21235Y37863*
X21221Y37877*
X21221Y37903*
X21215Y37903*
X21201Y37917*
X21201Y37923*
X21175Y37923*
X21161Y37937*
X21161Y38049*
X21175Y38063*
X21181Y38063*
X21181Y38069*
X21195Y38083*
X21201Y38083*
X21201Y38129*
X21215Y38143*
X21221Y38143*
X21221Y38149*
X21235Y38163*
X21241Y38163*
X21241Y38209*
X21255Y38223*
X21261Y38223*
X21261Y38269*
X21275Y38283*
X21281Y38283*
X21281Y38329*
X21295Y38343*
X21301Y38343*
X21301Y38389*
X21315Y38403*
X21321Y38403*
X21321Y38429*
X21335Y38443*
X21341Y38443*
X21341Y38449*
X21355Y38463*
X21361Y38463*
X21361Y38509*
X21375Y38523*
X21381Y38523*
X21381Y38569*
X21395Y38583*
X21401Y38583*
X21401Y38629*
X21415Y38643*
X21421Y38643*
X21421Y38689*
X21435Y38703*
X21441Y38703*
X21441Y38729*
X21455Y38743*
X21461Y38743*
X21461Y38749*
X21475Y38763*
X21481Y38763*
X21481Y38769*
X21495Y38783*
X21581Y38783*
X21581Y38789*
X21595Y38803*
X21701Y38803*
X21701Y38809*
X21715Y38823*
X21841Y38823*
X21841Y38829*
X21855Y38843*
X21961Y38843*
X21961Y38849*
X21975Y38863*
X22081Y38863*
X22081Y38869*
X22095Y38883*
X22161Y38883*
X22161Y38889*
X22175Y38903*
X22241Y38903*
X22241Y38909*
X22255Y38923*
X22301Y38923*
X22301Y38929*
X22315Y38943*
X22401Y38943*
X22401Y38949*
X22415Y38963*
X22441Y38963*
X22441Y38989*
X22455Y39003*
X22461Y39003*
X22461Y39943*
X22455Y39943*
X22441Y39957*
X22441Y39963*
X22435Y39963*
X22421Y39977*
X22421Y39983*
X22395Y39983*
X22381Y39997*
X22381Y40003*
X22355Y40003*
X22341Y40017*
X22341Y40023*
X22215Y40023*
X22201Y40037*
X22201Y40043*
X22075Y40043*
X22061Y40057*
X22061Y40063*
X21955Y40063*
X21941Y40077*
X21941Y40083*
X21835Y40083*
X21821Y40097*
X21821Y40103*
X21695Y40103*
X21681Y40117*
X21681Y40123*
X21635Y40123*
X21621Y40137*
X21621Y40143*
X21555Y40143*
X21541Y40157*
X21541Y40163*
X21475Y40163*
X21461Y40177*
X21461Y40183*
X21435Y40183*
X21421Y40197*
X21421Y40243*
X21415Y40243*
X21401Y40257*
X21401Y40283*
X21395Y40283*
X21381Y40297*
X21381Y40343*
X21375Y40343*
X21361Y40357*
X21361Y40383*
X21355Y40383*
X21341Y40397*
X21341Y40423*
X21335Y40423*
X21321Y40437*
X21321Y40463*
X21315Y40463*
X21301Y40477*
X21301Y40523*
X21295Y40523*
X21281Y40537*
X21281Y40563*
X21275Y40563*
X21261Y40577*
X21261Y40623*
X21255Y40623*
X21241Y40637*
X21241Y40683*
X21235Y40683*
X21221Y40697*
X21221Y40723*
X21215Y40723*
X21201Y40737*
X21201Y40763*
X21195Y40763*
X21181Y40777*
X21181Y40783*
X21175Y40783*
X21161Y40797*
X21161Y40823*
X21155Y40823*
X21141Y40837*
X21141Y40949*
X21155Y40963*
X21161Y40963*
X21161Y40989*
X21175Y41003*
X21181Y41003*
X21181Y41009*
X21195Y41023*
X21201Y41023*
X21201Y41029*
X21215Y41043*
X21221Y41043*
X21221Y41049*
X21235Y41063*
X21241Y41063*
X21241Y41089*
X21255Y41103*
X21261Y41103*
X21261Y41109*
X21275Y41123*
X21281Y41123*
X21281Y41149*
X21295Y41163*
X21301Y41163*
X21301Y41189*
X21315Y41203*
X21321Y41203*
X21321Y41209*
X21335Y41223*
X21341Y41223*
X21341Y41249*
X21355Y41263*
X21361Y41263*
X21361Y41269*
X21375Y41283*
X21381Y41283*
X21381Y41289*
X21395Y41303*
X21401Y41303*
X21401Y41329*
X21415Y41343*
X21421Y41343*
X21421Y41369*
X21435Y41383*
X21441Y41383*
X21441Y41389*
X21455Y41403*
X21461Y41403*
X21461Y41429*
X21475Y41443*
X21481Y41443*
X21481Y41449*
X21495Y41463*
X21501Y41463*
X21501Y41469*
X21515Y41483*
X21521Y41483*
X21521Y41489*
X21535Y41503*
X21541Y41503*
X21541Y41529*
X21555Y41543*
X21561Y41543*
X21561Y41549*
X21575Y41563*
X21581Y41563*
X21581Y41589*
X21595Y41603*
X21601Y41603*
X21601Y41629*
X21615Y41643*
X21621Y41643*
X21621Y41669*
X21635Y41683*
X21641Y41683*
X21641Y41689*
X21655Y41703*
X21661Y41703*
X21661Y41709*
X21675Y41723*
X21681Y41723*
X21681Y41729*
X21695Y41743*
X21701Y41743*
X21701Y41763*
X21695Y41763*
X21681Y41777*
X21681Y41783*
X21675Y41783*
X21661Y41797*
X21661Y41803*
X21655Y41803*
X21641Y41817*
X21641Y41823*
X21635Y41823*
X21621Y41837*
X21621Y41843*
X21615Y41843*
X21601Y41857*
X21601Y41863*
X21595Y41863*
X21581Y41877*
X21581Y41883*
X21575Y41883*
X21561Y41897*
X21561Y41903*
X21555Y41903*
X21541Y41917*
X21541Y41923*
X21535Y41923*
X21521Y41937*
X21521Y41943*
X21515Y41943*
X21501Y41957*
X21501Y41963*
X21495Y41963*
X21481Y41977*
X21481Y41983*
X21475Y41983*
X21461Y41997*
X21461Y42003*
X21455Y42003*
X21441Y42017*
X21441Y42023*
X21435Y42023*
X21421Y42037*
X21421Y42043*
X21415Y42043*
X21401Y42057*
X21401Y42063*
X21395Y42063*
X21381Y42077*
X21381Y42083*
X21375Y42083*
X21361Y42097*
X21361Y42103*
X21355Y42103*
X21341Y42117*
X21341Y42123*
X21335Y42123*
X21321Y42137*
X21321Y42143*
X21315Y42143*
X21301Y42157*
X21301Y42163*
X21295Y42163*
X21281Y42177*
X21281Y42183*
X21275Y42183*
X21261Y42197*
X21261Y42203*
X21255Y42203*
X21241Y42217*
X21241Y42223*
X21235Y42223*
X21221Y42237*
X21221Y42243*
X21215Y42243*
X21201Y42257*
X21201Y42263*
X21195Y42263*
X21181Y42277*
X21181Y42283*
X21175Y42283*
X21161Y42297*
X21161Y42303*
X21155Y42303*
X21141Y42317*
X21141Y42323*
X21135Y42323*
X21121Y42337*
X21121Y42343*
X21115Y42343*
X21101Y42357*
X21101Y42363*
X21095Y42363*
X21081Y42377*
X21081Y42383*
X21075Y42383*
X21061Y42397*
X21061Y42403*
X21055Y42403*
X21041Y42417*
X21041Y42423*
X21035Y42423*
X21021Y42437*
X21021Y42443*
X21015Y42443*
X21001Y42457*
X21001Y42463*
X20941Y42463*
X20941Y42457*
X16361Y36488D02*
X16441Y36488D01*
X20941Y36488D02*
X21021Y36488D01*
X16313Y36537D02*
X16529Y36537D01*
X20853Y36537D02*
X21069Y36537D01*
X16261Y36587D02*
X16581Y36587D01*
X20781Y36587D02*
X21121Y36587D01*
X16214Y36636D02*
X16668Y36636D01*
X20714Y36636D02*
X21168Y36636D01*
X16161Y36686D02*
X16741Y36686D01*
X20641Y36686D02*
X21221Y36686D01*
X16115Y36735D02*
X16787Y36735D01*
X20575Y36735D02*
X21267Y36735D01*
X16061Y36785D02*
X16881Y36785D01*
X20501Y36785D02*
X21321Y36785D01*
X16016Y36834D02*
X16946Y36834D01*
X17496Y36834D02*
X17606Y36834D01*
X19781Y36834D02*
X19886Y36834D01*
X20416Y36834D02*
X21366Y36834D01*
X15961Y36884D02*
X17041Y36884D01*
X17381Y36884D02*
X17641Y36884D01*
X19741Y36884D02*
X19981Y36884D01*
X20341Y36884D02*
X21421Y36884D01*
X15917Y36933D02*
X17105Y36933D01*
X17317Y36933D02*
X17645Y36933D01*
X19721Y36933D02*
X20065Y36933D01*
X20277Y36933D02*
X21465Y36933D01*
X15867Y36983D02*
X17155Y36983D01*
X17247Y36983D02*
X17661Y36983D01*
X19701Y36983D02*
X20135Y36983D01*
X20227Y36983D02*
X21515Y36983D01*
X15818Y37032D02*
X17681Y37032D01*
X19681Y37032D02*
X21564Y37032D01*
X15768Y37082D02*
X17721Y37082D01*
X19661Y37082D02*
X21614Y37082D01*
X15719Y37131D02*
X17741Y37131D01*
X19641Y37131D02*
X21663Y37131D01*
X15681Y37181D02*
X17753Y37181D01*
X19629Y37181D02*
X21701Y37181D01*
X15714Y37230D02*
X17763Y37230D01*
X19601Y37230D02*
X21668Y37230D01*
X15741Y37280D02*
X17792Y37280D01*
X19590Y37280D02*
X21621Y37280D01*
X15781Y37330D02*
X17821Y37330D01*
X19561Y37330D02*
X21601Y37330D01*
X15821Y37379D02*
X17831Y37379D01*
X19541Y37379D02*
X21561Y37379D01*
X15853Y37429D02*
X17861Y37429D01*
X19521Y37429D02*
X21529Y37429D01*
X15881Y37478D02*
X17870Y37478D01*
X19512Y37478D02*
X21501Y37478D01*
X15912Y37528D02*
X17901Y37528D01*
X19481Y37528D02*
X21461Y37528D01*
X15961Y37577D02*
X17921Y37577D01*
X19473Y37577D02*
X21421Y37577D01*
X15981Y37627D02*
X17941Y37627D01*
X19441Y37627D02*
X21391Y37627D01*
X16020Y37676D02*
X17948Y37676D01*
X19421Y37676D02*
X21362Y37676D01*
X16050Y37726D02*
X17981Y37726D01*
X19381Y37726D02*
X21321Y37726D01*
X16081Y37775D02*
X17987Y37775D01*
X19375Y37775D02*
X21283Y37775D01*
X16129Y37825D02*
X18021Y37825D01*
X19361Y37825D02*
X21261Y37825D01*
X16158Y37874D02*
X18046Y37874D01*
X19341Y37874D02*
X21224Y37874D01*
X16188Y37924D02*
X18061Y37924D01*
X19321Y37924D02*
X21174Y37924D01*
X16201Y37973D02*
X18086Y37973D01*
X19301Y37973D02*
X21161Y37973D01*
X16201Y38023D02*
X18101Y38023D01*
X19287Y38023D02*
X21161Y38023D01*
X16181Y38072D02*
X18121Y38072D01*
X19241Y38072D02*
X21185Y38072D01*
X16168Y38122D02*
X18141Y38122D01*
X19228Y38122D02*
X21201Y38122D01*
X16158Y38172D02*
X18161Y38172D01*
X19218Y38172D02*
X21241Y38172D01*
X16141Y38221D02*
X18173Y38221D01*
X19189Y38221D02*
X21253Y38221D01*
X16121Y38271D02*
X18203Y38271D01*
X19179Y38271D02*
X21263Y38271D01*
X16081Y38320D02*
X18221Y38320D01*
X19150Y38320D02*
X21281Y38320D01*
X16061Y38370D02*
X18242Y38370D01*
X19140Y38370D02*
X21301Y38370D01*
X16051Y38419D02*
X18261Y38419D01*
X19121Y38419D02*
X21321Y38419D01*
X16041Y38469D02*
X18261Y38469D01*
X19121Y38469D02*
X21361Y38469D01*
X16012Y38518D02*
X18201Y38518D01*
X19181Y38518D02*
X21370Y38518D01*
X16001Y38568D02*
X18110Y38568D01*
X19252Y38568D02*
X21381Y38568D01*
X15981Y38617D02*
X18041Y38617D01*
X19321Y38617D02*
X21401Y38617D01*
X15961Y38667D02*
X17971Y38667D01*
X19391Y38667D02*
X21421Y38667D01*
X15921Y38716D02*
X17942Y38716D01*
X19440Y38716D02*
X21441Y38716D01*
X15901Y38766D02*
X17892Y38766D01*
X19490Y38766D02*
X21481Y38766D01*
X15674Y38815D02*
X17843Y38815D01*
X19521Y38815D02*
X21708Y38815D01*
X15301Y38865D02*
X17813Y38865D01*
X19569Y38865D02*
X22081Y38865D01*
X15115Y38914D02*
X17784Y38914D01*
X19598Y38914D02*
X22247Y38914D01*
X14941Y38964D02*
X17754Y38964D01*
X19621Y38964D02*
X22441Y38964D01*
X14921Y39014D02*
X17741Y39014D01*
X19641Y39014D02*
X22461Y39014D01*
X14921Y39063D02*
X17715Y39063D01*
X19661Y39063D02*
X22461Y39063D01*
X14921Y39113D02*
X17681Y39113D01*
X19681Y39113D02*
X22461Y39113D01*
X14921Y39162D02*
X17661Y39162D01*
X19701Y39162D02*
X22461Y39162D01*
X14921Y39212D02*
X17661Y39212D01*
X19701Y39212D02*
X22461Y39212D01*
X14921Y39261D02*
X17661Y39261D01*
X19721Y39261D02*
X22461Y39261D01*
X14921Y39311D02*
X17641Y39311D01*
X19721Y39311D02*
X22461Y39311D01*
X14921Y39360D02*
X17641Y39360D01*
X19721Y39360D02*
X22461Y39360D01*
X14921Y39410D02*
X17641Y39410D01*
X19734Y39410D02*
X22461Y39410D01*
X14921Y39459D02*
X17641Y39459D01*
X19741Y39459D02*
X22461Y39459D01*
X14921Y39509D02*
X17641Y39509D01*
X19741Y39509D02*
X22461Y39509D01*
X14921Y39558D02*
X17641Y39558D01*
X19721Y39558D02*
X22461Y39558D01*
X14921Y39608D02*
X17641Y39608D01*
X19721Y39608D02*
X22461Y39608D01*
X14921Y39657D02*
X17650Y39657D01*
X19721Y39657D02*
X22461Y39657D01*
X14921Y39707D02*
X17661Y39707D01*
X19701Y39707D02*
X22461Y39707D01*
X14921Y39757D02*
X17669Y39757D01*
X19701Y39757D02*
X22461Y39757D01*
X14921Y39806D02*
X17681Y39806D01*
X19681Y39806D02*
X22461Y39806D01*
X14921Y39856D02*
X17708Y39856D01*
X19661Y39856D02*
X22461Y39856D01*
X14921Y39905D02*
X17741Y39905D01*
X19641Y39905D02*
X22461Y39905D01*
X14939Y39955D02*
X17747Y39955D01*
X19621Y39955D02*
X22443Y39955D01*
X15028Y40004D02*
X17781Y40004D01*
X19601Y40004D02*
X22354Y40004D01*
X15318Y40054D02*
X17806Y40054D01*
X19561Y40054D02*
X22064Y40054D01*
X15667Y40103D02*
X17841Y40103D01*
X19527Y40103D02*
X21695Y40103D01*
X15817Y40153D02*
X17885Y40153D01*
X19497Y40153D02*
X21545Y40153D01*
X15941Y40202D02*
X17934Y40202D01*
X19448Y40202D02*
X21421Y40202D01*
X15976Y40252D02*
X17984Y40252D01*
X19398Y40252D02*
X21406Y40252D01*
X15981Y40301D02*
X18033Y40301D01*
X19329Y40301D02*
X21381Y40301D01*
X16015Y40351D02*
X18123Y40351D01*
X19259Y40351D02*
X21367Y40351D01*
X16041Y40400D02*
X18172Y40400D01*
X19190Y40400D02*
X21341Y40400D01*
X16054Y40450D02*
X18302Y40450D01*
X19080Y40450D02*
X21321Y40450D01*
X16081Y40499D02*
X18492Y40499D01*
X18890Y40499D02*
X21301Y40499D01*
X16093Y40549D02*
X21281Y40549D01*
X16121Y40599D02*
X21261Y40599D01*
X16141Y40648D02*
X21241Y40648D01*
X16161Y40698D02*
X21221Y40698D01*
X16181Y40747D02*
X21201Y40747D01*
X16201Y40797D02*
X21161Y40797D01*
X16221Y40846D02*
X21141Y40846D01*
X16221Y40896D02*
X21141Y40896D01*
X16221Y40945D02*
X21141Y40945D01*
X16195Y40995D02*
X21167Y40995D01*
X16161Y41044D02*
X21221Y41044D01*
X16136Y41094D02*
X21246Y41094D01*
X16107Y41143D02*
X21281Y41143D01*
X16061Y41193D02*
X21305Y41193D01*
X16028Y41242D02*
X21341Y41242D01*
X15998Y41292D02*
X21384Y41292D01*
X15968Y41341D02*
X21414Y41341D01*
X15939Y41391D02*
X21443Y41391D01*
X15889Y41441D02*
X21473Y41441D01*
X15860Y41490D02*
X21522Y41490D01*
X15830Y41540D02*
X21552Y41540D01*
X15781Y41589D02*
X21581Y41589D01*
X15751Y41639D02*
X21611Y41639D01*
X15721Y41688D02*
X21641Y41688D01*
X15692Y41738D02*
X21690Y41738D01*
X15691Y41787D02*
X21671Y41787D01*
X15741Y41837D02*
X21621Y41837D01*
X15790Y41886D02*
X21572Y41886D01*
X15840Y41936D02*
X17182Y41936D01*
X17360Y41936D02*
X20022Y41936D01*
X20180Y41936D02*
X21522Y41936D01*
X15889Y41985D02*
X17113Y41985D01*
X17469Y41985D02*
X19913Y41985D01*
X20261Y41985D02*
X21473Y41985D01*
X15939Y42035D02*
X17043Y42035D01*
X17599Y42035D02*
X19783Y42035D01*
X20339Y42035D02*
X21423Y42035D01*
X16008Y42084D02*
X16974Y42084D01*
X17748Y42084D02*
X19634Y42084D01*
X20408Y42084D02*
X21374Y42084D01*
X16038Y42134D02*
X16904Y42134D01*
X17838Y42134D02*
X19544Y42134D01*
X20478Y42134D02*
X21324Y42134D01*
X16087Y42183D02*
X16835Y42183D01*
X17967Y42183D02*
X19415Y42183D01*
X20547Y42183D02*
X21275Y42183D01*
X16137Y42233D02*
X16745Y42233D01*
X17981Y42233D02*
X19401Y42233D01*
X20617Y42233D02*
X21225Y42233D01*
X16181Y42283D02*
X16681Y42283D01*
X18001Y42283D02*
X19381Y42283D01*
X20701Y42283D02*
X21181Y42283D01*
X16236Y42332D02*
X16626Y42332D01*
X18001Y42332D02*
X19381Y42332D01*
X20756Y42332D02*
X21126Y42332D01*
X16281Y42382D02*
X16561Y42382D01*
X18021Y42382D02*
X19381Y42382D01*
X20821Y42382D02*
X21081Y42382D01*
X16335Y42431D02*
X16467Y42431D01*
X18021Y42431D02*
X19341Y42431D01*
X20915Y42431D02*
X21027Y42431D01*
X18041Y42481D02*
X19341Y42481D01*
X18041Y42530D02*
X19328Y42530D01*
X18061Y42580D02*
X19321Y42580D01*
X18061Y42629D02*
X19321Y42629D01*
X18061Y42679D02*
X19301Y42679D01*
X18092Y42728D02*
X19301Y42728D01*
X18101Y42778D02*
X19301Y42778D01*
X18101Y42827D02*
X19281Y42827D01*
X18121Y42877D02*
X19281Y42877D01*
X18121Y42926D02*
X19261Y42926D01*
X18140Y42976D02*
X19261Y42976D01*
X18141Y43025D02*
X19241Y43025D01*
X18141Y43075D02*
X19241Y43075D01*
X18161Y43125D02*
X19221Y43125D01*
X18161Y43174D02*
X19221Y43174D01*
%LNtext*%
G36*
X20660Y16702D02*
X20660Y17611D01*
X20257Y17611D01*
X20200Y17610D01*
X20150Y17605D01*
X20108Y17598D01*
X20072Y17587D01*
X20042Y17572D01*
X20015Y17553D01*
X19992Y17529D01*
X19971Y17500D01*
X19955Y17468D01*
X19943Y17435D01*
X19936Y17400D01*
X19933Y17363D01*
X19937Y17317D01*
X19949Y17274D01*
X19969Y17235D01*
X19996Y17200D01*
X20032Y17170D01*
X20076Y17146D01*
X20128Y17128D01*
X20159Y17122D01*
X20178Y17220D01*
X20152Y17227D01*
X20130Y17237D01*
X20111Y17249D01*
X20095Y17264D01*
X20082Y17282D01*
X20071Y17301D01*
X20063Y17321D01*
X20059Y17342D01*
X20057Y17363D01*
X20060Y17394D01*
X20069Y17422D01*
X20084Y17447D01*
X20104Y17469D01*
X20131Y17487D01*
X20165Y17500D01*
X20205Y17508D01*
X20252Y17511D01*
X20540Y17511D01*
X20540Y17210D01*
X20540Y17210D01*
X20281Y17210D01*
X20242Y17211D01*
X20208Y17214D01*
X20178Y17220D01*
X20159Y17122D01*
X20190Y17116D01*
X20167Y17104D01*
X20148Y17093D01*
X20131Y17082D01*
X20117Y17071D01*
X20091Y17045D01*
X20066Y17016D01*
X20041Y16984D01*
X20017Y16950D01*
X19859Y16702D01*
X20010Y16702D01*
X20131Y16891D01*
X20156Y16930D01*
X20179Y16964D01*
X20199Y16992D01*
X20217Y17017D01*
X20234Y17037D01*
X20250Y17053D01*
X20265Y17067D01*
X20279Y17077D01*
X20292Y17085D01*
X20306Y17092D01*
X20320Y17097D01*
X20333Y17102D01*
X20345Y17103D01*
X20360Y17105D01*
X20379Y17106D01*
X20400Y17106D01*
X20540Y17106D01*
X20540Y16702D01*
X20660Y16702D01*
X20660Y16702D01*
X19786Y16994D02*
X19672Y17004D01*
X19667Y16972D01*
X19659Y16942D01*
X19648Y16916D01*
X19635Y16892D01*
X19618Y16871D01*
X19597Y16853D01*
X19572Y16836D01*
X19543Y16822D01*
X19511Y16810D01*
X19477Y16801D01*
X19442Y16796D01*
X19404Y16795D01*
X19370Y16796D01*
X19339Y16800D01*
X19310Y16806D01*
X19282Y16815D01*
X19258Y16826D01*
X19236Y16839D01*
X19218Y16854D01*
X19204Y16871D01*
X19193Y16889D01*
X19185Y16908D01*
X19180Y16928D01*
X19178Y16949D01*
X19180Y16970D01*
X19184Y16989D01*
X19192Y17007D01*
X19203Y17024D01*
X19217Y17039D01*
X19236Y17053D01*
X19258Y17066D01*
X19285Y17077D01*
X19309Y17085D01*
X19344Y17096D01*
X19390Y17108D01*
X19447Y17122D01*
X19505Y17137D01*
X19553Y17151D01*
X19592Y17165D01*
X19622Y17178D01*
X19653Y17197D01*
X19679Y17217D01*
X19701Y17239D01*
X19719Y17263D01*
X19733Y17289D01*
X19743Y17317D01*
X19749Y17346D01*
X19751Y17376D01*
X19749Y17410D01*
X19741Y17443D01*
X19729Y17474D01*
X19712Y17505D01*
X19690Y17533D01*
X19664Y17558D01*
X19633Y17578D01*
X19598Y17596D01*
X19559Y17609D01*
X19519Y17619D01*
X19476Y17625D01*
X19431Y17627D01*
X19382Y17625D01*
X19336Y17619D01*
X19293Y17608D01*
X19253Y17594D01*
X19216Y17576D01*
X19185Y17554D01*
X19157Y17528D01*
X19134Y17498D01*
X19116Y17466D01*
X19102Y17431D01*
X19093Y17394D01*
X19089Y17355D01*
X19205Y17346D01*
X19212Y17387D01*
X19225Y17422D01*
X19244Y17452D01*
X19268Y17477D01*
X19298Y17496D01*
X19334Y17510D01*
X19377Y17518D01*
X19426Y17521D01*
X19477Y17518D01*
X19520Y17511D01*
X19557Y17498D01*
X19585Y17481D01*
X19607Y17460D01*
X19623Y17437D01*
X19632Y17412D01*
X19635Y17384D01*
X19633Y17361D01*
X19626Y17340D01*
X19615Y17321D01*
X19600Y17304D01*
X19575Y17288D01*
X19537Y17272D01*
X19485Y17255D01*
X19418Y17239D01*
X19351Y17223D01*
X19295Y17208D01*
X19250Y17194D01*
X19217Y17181D01*
X19180Y17161D01*
X19148Y17139D01*
X19121Y17115D01*
X19100Y17088D01*
X19083Y17059D01*
X19072Y17028D01*
X19065Y16994D01*
X19062Y16959D01*
X19065Y16923D01*
X19073Y16888D01*
X19086Y16855D01*
X19104Y16822D01*
X19127Y16792D01*
X19154Y16765D01*
X19186Y16742D01*
X19223Y16722D01*
X19263Y16707D01*
X19306Y16696D01*
X19351Y16689D01*
X19398Y16687D01*
X19457Y16689D01*
X19512Y16696D01*
X19561Y16707D01*
X19605Y16723D01*
X19645Y16743D01*
X19679Y16768D01*
X19710Y16797D01*
X19736Y16831D01*
X19757Y16868D01*
X19772Y16908D01*
X19782Y16950D01*
X19786Y16994D01*
X19786Y16994D01*
X18666Y16702D02*
X18666Y17504D01*
X18966Y17504D01*
X18966Y17611D01*
X18245Y17611D01*
X18245Y17504D01*
X18546Y17504D01*
X18546Y16702D01*
X18666Y16702D01*
X18666Y16702D01*
X20206Y27228D02*
X20206Y27335D01*
X19821Y27335D01*
X19821Y26998D01*
X19866Y26965D01*
X19911Y26936D01*
X19957Y26911D01*
X20004Y26891D01*
X20052Y26876D01*
X20100Y26865D01*
X20148Y26858D01*
X20198Y26856D01*
X20263Y26859D01*
X20326Y26870D01*
X20385Y26888D01*
X20441Y26913D01*
X20493Y26945D01*
X20537Y26983D01*
X20575Y27028D01*
X20606Y27079D01*
X20631Y27135D01*
X20648Y27194D01*
X20659Y27256D01*
X20662Y27321D01*
X20659Y27387D01*
X20648Y27450D01*
X20631Y27511D01*
X20607Y27569D01*
X20576Y27623D01*
X20539Y27669D01*
X20496Y27708D01*
X20447Y27740D01*
X20393Y27764D01*
X20335Y27782D01*
X20273Y27792D01*
X20207Y27796D01*
X20159Y27794D01*
X20113Y27788D01*
X20070Y27778D01*
X20029Y27764D01*
X19991Y27746D01*
X19958Y27726D01*
X19929Y27702D01*
X19904Y27675D01*
X19883Y27644D01*
X19864Y27609D01*
X19848Y27570D01*
X19835Y27526D01*
X19943Y27496D01*
X19954Y27529D01*
X19966Y27558D01*
X19980Y27584D01*
X19994Y27606D01*
X20011Y27624D01*
X20031Y27641D01*
X20055Y27656D01*
X20081Y27669D01*
X20110Y27680D01*
X20141Y27687D01*
X20173Y27691D01*
X20206Y27693D01*
X20246Y27691D01*
X20283Y27687D01*
X20318Y27679D01*
X20349Y27668D01*
X20378Y27654D01*
X20403Y27639D01*
X20426Y27621D01*
X20446Y27602D01*
X20464Y27581D01*
X20479Y27559D01*
X20492Y27536D01*
X20503Y27512D01*
X20519Y27469D01*
X20529Y27424D01*
X20536Y27377D01*
X20538Y27329D01*
X20536Y27271D01*
X20528Y27217D01*
X20515Y27169D01*
X20496Y27126D01*
X20473Y27087D01*
X20445Y27054D01*
X20412Y27026D01*
X20374Y27004D01*
X20334Y26987D01*
X20292Y26974D01*
X20249Y26967D01*
X20205Y26964D01*
X20166Y26966D01*
X20127Y26972D01*
X20089Y26981D01*
X20052Y26994D01*
X20017Y27010D01*
X19987Y27025D01*
X19961Y27042D01*
X19939Y27059D01*
X19939Y27228D01*
X20206Y27228D01*
X20206Y27228D01*
X19645Y26871D02*
X19645Y27780D01*
X19522Y27780D01*
X19044Y27067D01*
X19044Y27780D01*
X18929Y27780D01*
X18929Y26871D01*
X19052Y26871D01*
X19530Y27586D01*
X19530Y26871D01*
X19645Y26871D01*
X19645Y26871D01*
X18727Y26871D02*
X18727Y27780D01*
X18415Y27780D01*
X18415Y27673D01*
X18606Y27673D01*
X18606Y26979D01*
X18606Y26979D01*
X18412Y26979D01*
X18370Y26980D01*
X18332Y26983D01*
X18299Y26988D01*
X18271Y26995D01*
X18247Y27005D01*
X18225Y27015D01*
X18206Y27028D01*
X18190Y27042D01*
X18170Y27066D01*
X18152Y27093D01*
X18136Y27123D01*
X18123Y27157D01*
X18113Y27196D01*
X18105Y27237D01*
X18101Y27283D01*
X18099Y27333D01*
X18102Y27400D01*
X18111Y27459D01*
X18126Y27509D01*
X18146Y27552D01*
X18171Y27587D01*
X18198Y27616D01*
X18228Y27638D01*
X18260Y27654D01*
X18288Y27663D01*
X18323Y27668D01*
X18366Y27672D01*
X18415Y27673D01*
X18415Y27780D01*
X18414Y27780D01*
X18364Y27780D01*
X18320Y27777D01*
X18283Y27773D01*
X18252Y27767D01*
X18214Y27757D01*
X18179Y27742D01*
X18147Y27724D01*
X18118Y27702D01*
X18085Y27670D01*
X18056Y27633D01*
X18031Y27592D01*
X18011Y27547D01*
X17995Y27498D01*
X17984Y27446D01*
X17977Y27390D01*
X17975Y27331D01*
X17977Y27280D01*
X17981Y27233D01*
X17989Y27189D01*
X17999Y27147D01*
X18012Y27109D01*
X18027Y27074D01*
X18043Y27043D01*
X18061Y27015D01*
X18081Y26990D01*
X18101Y26968D01*
X18122Y26949D01*
X18144Y26932D01*
X18168Y26918D01*
X18194Y26906D01*
X18222Y26895D01*
X18253Y26887D01*
X18286Y26880D01*
X18321Y26875D01*
X18359Y26872D01*
X18399Y26871D01*
X18727Y26871D01*
X18727Y26871D01*
X20605Y19170D02*
X20605Y20079D01*
X20485Y20079D01*
X20485Y19170D01*
X20605Y19170D01*
X20605Y19170D01*
X20274Y19170D02*
X20274Y20079D01*
X20151Y20079D01*
X19673Y19366D01*
X19673Y20079D01*
X19558Y20079D01*
X19558Y19170D01*
X19681Y19170D01*
X20159Y19885D01*
X20159Y19170D01*
X20274Y19170D01*
X20274Y19170D01*
X19124Y19170D02*
X19124Y19972D01*
X19424Y19972D01*
X19424Y20079D01*
X18703Y20079D01*
X18703Y19972D01*
X19004Y19972D01*
X19004Y19170D01*
X19124Y19170D01*
X19124Y19170D01*
X20775Y14464D02*
X20663Y14479D01*
X20652Y14435D01*
X20637Y14397D01*
X20619Y14366D01*
X20598Y14342D01*
X20573Y14324D01*
X20546Y14311D01*
X20517Y14303D01*
X20485Y14300D01*
X20447Y14304D01*
X20412Y14314D01*
X20381Y14331D01*
X20352Y14355D01*
X20328Y14384D01*
X20311Y14416D01*
X20301Y14451D01*
X20298Y14490D01*
X20301Y14527D01*
X20310Y14560D01*
X20326Y14590D01*
X20348Y14617D01*
X20375Y14639D01*
X20405Y14654D01*
X20439Y14664D01*
X20476Y14667D01*
X20493Y14666D01*
X20511Y14664D01*
X20532Y14660D01*
X20555Y14654D01*
X20542Y14752D01*
X20537Y14752D01*
X20532Y14751D01*
X20528Y14751D01*
X20524Y14751D01*
X20489Y14753D01*
X20456Y14760D01*
X20425Y14772D01*
X20396Y14788D01*
X20371Y14809D01*
X20353Y14836D01*
X20342Y14867D01*
X20339Y14903D01*
X20341Y14932D01*
X20349Y14959D01*
X20362Y14983D01*
X20380Y15005D01*
X20403Y15022D01*
X20428Y15035D01*
X20456Y15043D01*
X20488Y15045D01*
X20519Y15042D01*
X20547Y15035D01*
X20573Y15022D01*
X20596Y15004D01*
X20616Y14981D01*
X20632Y14953D01*
X20644Y14920D01*
X20652Y14881D01*
X20764Y14901D01*
X20750Y14954D01*
X20730Y15001D01*
X20704Y15041D01*
X20670Y15075D01*
X20632Y15102D01*
X20589Y15121D01*
X20542Y15133D01*
X20490Y15137D01*
X20454Y15135D01*
X20419Y15129D01*
X20385Y15119D01*
X20353Y15105D01*
X20324Y15087D01*
X20298Y15067D01*
X20276Y15044D01*
X20257Y15018D01*
X20243Y14990D01*
X20232Y14961D01*
X20226Y14931D01*
X20224Y14901D01*
X20226Y14872D01*
X20232Y14844D01*
X20242Y14818D01*
X20256Y14793D01*
X20273Y14770D01*
X20295Y14750D01*
X20320Y14732D01*
X20349Y14716D01*
X20311Y14705D01*
X20278Y14688D01*
X20249Y14666D01*
X20224Y14639D01*
X20204Y14608D01*
X20191Y14573D01*
X20182Y14535D01*
X20179Y14493D01*
X20185Y14435D01*
X20201Y14383D01*
X20228Y14334D01*
X20266Y14291D01*
X20312Y14254D01*
X20364Y14229D01*
X20422Y14213D01*
X20486Y14208D01*
X20543Y14212D01*
X20595Y14226D01*
X20642Y14248D01*
X20684Y14279D01*
X20720Y14317D01*
X20747Y14361D01*
X20765Y14410D01*
X20775Y14464D01*
X20775Y14464D01*
X20006Y14224D02*
X20006Y14351D01*
X19879Y14351D01*
X19879Y14224D01*
X20006Y14224D01*
X20006Y14224D01*
X19716Y14464D02*
X19604Y14479D01*
X19593Y14435D01*
X19578Y14397D01*
X19560Y14366D01*
X19538Y14342D01*
X19514Y14324D01*
X19487Y14311D01*
X19458Y14303D01*
X19426Y14300D01*
X19388Y14304D01*
X19353Y14314D01*
X19322Y14331D01*
X19293Y14355D01*
X19269Y14384D01*
X19252Y14416D01*
X19242Y14451D01*
X19239Y14490D01*
X19242Y14527D01*
X19251Y14560D01*
X19267Y14590D01*
X19289Y14617D01*
X19316Y14639D01*
X19346Y14654D01*
X19380Y14664D01*
X19417Y14667D01*
X19433Y14666D01*
X19452Y14664D01*
X19473Y14660D01*
X19495Y14654D01*
X19483Y14752D01*
X19478Y14752D01*
X19473Y14751D01*
X19469Y14751D01*
X19465Y14751D01*
X19430Y14753D01*
X19397Y14760D01*
X19366Y14772D01*
X19337Y14788D01*
X19312Y14809D01*
X19294Y14836D01*
X19283Y14867D01*
X19280Y14903D01*
X19282Y14932D01*
X19290Y14959D01*
X19303Y14983D01*
X19321Y15005D01*
X19343Y15022D01*
X19369Y15035D01*
X19397Y15043D01*
X19428Y15045D01*
X19460Y15042D01*
X19488Y15035D01*
X19514Y15022D01*
X19537Y15004D01*
X19557Y14981D01*
X19573Y14953D01*
X19585Y14920D01*
X19593Y14881D01*
X19704Y14901D01*
X19691Y14954D01*
X19671Y15001D01*
X19644Y15041D01*
X19611Y15075D01*
X19573Y15102D01*
X19530Y15121D01*
X19483Y15133D01*
X19431Y15137D01*
X19394Y15135D01*
X19359Y15129D01*
X19326Y15119D01*
X19294Y15105D01*
X19264Y15087D01*
X19239Y15067D01*
X19216Y15044D01*
X19198Y15018D01*
X19184Y14990D01*
X19173Y14961D01*
X19167Y14931D01*
X19165Y14901D01*
X19167Y14872D01*
X19173Y14844D01*
X19183Y14818D01*
X19196Y14793D01*
X19214Y14770D01*
X19236Y14750D01*
X19261Y14732D01*
X19290Y14716D01*
X19252Y14705D01*
X19218Y14688D01*
X19189Y14666D01*
X19165Y14639D01*
X19145Y14608D01*
X19131Y14573D01*
X19123Y14535D01*
X19120Y14493D01*
X19126Y14435D01*
X19142Y14383D01*
X19169Y14334D01*
X19207Y14291D01*
X19253Y14254D01*
X19305Y14229D01*
X19363Y14213D01*
X19427Y14208D01*
X19484Y14212D01*
X19536Y14226D01*
X19583Y14248D01*
X19625Y14279D01*
X19661Y14317D01*
X19687Y14361D01*
X19706Y14410D01*
X19716Y14464D01*
X19716Y14464D01*
X18705Y14224D02*
X19057Y15133D01*
X18927Y15133D01*
X18690Y14473D01*
X18677Y14434D01*
X18664Y14396D01*
X18653Y14359D01*
X18643Y14324D01*
X18632Y14361D01*
X18620Y14398D01*
X18607Y14435D01*
X18594Y14473D01*
X18348Y15133D01*
X18225Y15133D01*
X18581Y14224D01*
X18705Y14224D01*
X18705Y14224D01*
X20739Y24617D02*
X20626Y24626D01*
X20620Y24594D01*
X20612Y24564D01*
X20602Y24538D01*
X20588Y24515D01*
X20572Y24494D01*
X20551Y24475D01*
X20526Y24458D01*
X20497Y24444D01*
X20465Y24432D01*
X20431Y24424D01*
X20395Y24419D01*
X20357Y24417D01*
X20324Y24418D01*
X20292Y24422D01*
X20263Y24428D01*
X20236Y24437D01*
X20211Y24449D01*
X20190Y24462D01*
X20172Y24477D01*
X20157Y24493D01*
X20146Y24512D01*
X20138Y24531D01*
X20133Y24551D01*
X20132Y24571D01*
X20133Y24592D01*
X20138Y24611D01*
X20146Y24629D01*
X20156Y24646D01*
X20171Y24661D01*
X20189Y24675D01*
X20212Y24688D01*
X20238Y24700D01*
X20262Y24708D01*
X20297Y24718D01*
X20343Y24730D01*
X20400Y24744D01*
X20458Y24759D01*
X20507Y24773D01*
X20546Y24787D01*
X20576Y24801D01*
X20606Y24819D01*
X20632Y24839D01*
X20655Y24861D01*
X20673Y24885D01*
X20687Y24911D01*
X20697Y24939D01*
X20703Y24968D01*
X20705Y24999D01*
X20702Y25032D01*
X20695Y25065D01*
X20683Y25097D01*
X20665Y25127D01*
X20644Y25155D01*
X20617Y25180D01*
X20587Y25201D01*
X20551Y25218D01*
X20513Y25232D01*
X20472Y25241D01*
X20429Y25247D01*
X20385Y25249D01*
X20336Y25247D01*
X20289Y25241D01*
X20246Y25231D01*
X20206Y25217D01*
X20170Y25198D01*
X20138Y25176D01*
X20111Y25150D01*
X20088Y25121D01*
X20069Y25088D01*
X20056Y25053D01*
X20047Y25016D01*
X20043Y24977D01*
X20158Y24969D01*
X20166Y25009D01*
X20179Y25044D01*
X20197Y25074D01*
X20221Y25099D01*
X20251Y25118D01*
X20288Y25132D01*
X20330Y25140D01*
X20380Y25143D01*
X20430Y25141D01*
X20474Y25133D01*
X20510Y25121D01*
X20539Y25103D01*
X20561Y25082D01*
X20576Y25059D01*
X20585Y25034D01*
X20589Y25007D01*
X20586Y24983D01*
X20580Y24962D01*
X20569Y24943D01*
X20553Y24926D01*
X20529Y24910D01*
X20491Y24894D01*
X20438Y24878D01*
X20372Y24861D01*
X20304Y24845D01*
X20248Y24830D01*
X20204Y24816D01*
X20171Y24803D01*
X20134Y24784D01*
X20102Y24762D01*
X20075Y24737D01*
X20053Y24711D01*
X20037Y24681D01*
X20025Y24650D01*
X20018Y24617D01*
X20016Y24581D01*
X20018Y24545D01*
X20026Y24511D01*
X20039Y24477D01*
X20057Y24444D01*
X20080Y24414D01*
X20108Y24387D01*
X20140Y24364D01*
X20177Y24345D01*
X20217Y24329D01*
X20259Y24318D01*
X20304Y24311D01*
X20352Y24309D01*
X20411Y24311D01*
X20465Y24318D01*
X20514Y24329D01*
X20559Y24345D01*
X20598Y24365D01*
X20633Y24390D01*
X20663Y24419D01*
X20689Y24453D01*
X20710Y24490D01*
X20726Y24530D01*
X20735Y24572D01*
X20739Y24617D01*
X20739Y24617D01*
X19203Y24643D02*
X19082Y24613D01*
X19105Y24543D01*
X19135Y24482D01*
X19173Y24430D01*
X19218Y24387D01*
X19270Y24353D01*
X19328Y24328D01*
X19390Y24314D01*
X19459Y24309D01*
X19529Y24313D01*
X19592Y24324D01*
X19648Y24343D01*
X19698Y24369D01*
X19741Y24402D01*
X19779Y24442D01*
X19811Y24489D01*
X19838Y24542D01*
X19859Y24600D01*
X19874Y24660D01*
X19883Y24722D01*
X19886Y24786D01*
X19883Y24855D01*
X19872Y24919D01*
X19855Y24978D01*
X19832Y25034D01*
X19802Y25083D01*
X19766Y25127D01*
X19725Y25164D01*
X19677Y25194D01*
X19626Y25218D01*
X19572Y25235D01*
X19516Y25246D01*
X19457Y25249D01*
X19391Y25245D01*
X19331Y25232D01*
X19277Y25210D01*
X19227Y25180D01*
X19184Y25141D01*
X19149Y25096D01*
X19120Y25044D01*
X19098Y24984D01*
X19216Y24956D01*
X19234Y25003D01*
X19255Y25042D01*
X19280Y25075D01*
X19308Y25101D01*
X19340Y25121D01*
X19376Y25135D01*
X19416Y25143D01*
X19459Y25146D01*
X19510Y25143D01*
X19556Y25134D01*
X19597Y25118D01*
X19635Y25096D01*
X19667Y25069D01*
X19694Y25037D01*
X19717Y25001D01*
X19733Y24961D01*
X19746Y24918D01*
X19755Y24875D01*
X19760Y24831D01*
X19762Y24786D01*
X19760Y24730D01*
X19754Y24678D01*
X19743Y24629D01*
X19728Y24584D01*
X19709Y24543D01*
X19685Y24508D01*
X19656Y24479D01*
X19623Y24455D01*
X19587Y24436D01*
X19549Y24423D01*
X19509Y24415D01*
X19469Y24412D01*
X19420Y24416D01*
X19375Y24426D01*
X19334Y24445D01*
X19297Y24470D01*
X19265Y24503D01*
X19239Y24543D01*
X19218Y24589D01*
X19203Y24643D01*
X19203Y24643D01*
X18939Y24324D02*
X18939Y25234D01*
X18819Y25234D01*
X18819Y24432D01*
X18371Y24432D01*
X18371Y24324D01*
X18939Y24324D01*
X18939Y24324D01*
X20866Y22203D02*
X20753Y22213D01*
X20747Y22180D01*
X20739Y22151D01*
X20729Y22124D01*
X20715Y22101D01*
X20699Y22080D01*
X20678Y22061D01*
X20653Y22045D01*
X20624Y22030D01*
X20592Y22018D01*
X20558Y22010D01*
X20522Y22005D01*
X20484Y22003D01*
X20451Y22004D01*
X20420Y22008D01*
X20390Y22015D01*
X20363Y22024D01*
X20338Y22035D01*
X20317Y22048D01*
X20299Y22063D01*
X20284Y22080D01*
X20273Y22098D01*
X20265Y22117D01*
X20260Y22137D01*
X20259Y22158D01*
X20260Y22178D01*
X20265Y22198D01*
X20273Y22216D01*
X20283Y22232D01*
X20298Y22248D01*
X20316Y22262D01*
X20339Y22274D01*
X20365Y22286D01*
X20389Y22294D01*
X20424Y22304D01*
X20470Y22316D01*
X20527Y22330D01*
X20585Y22345D01*
X20634Y22359D01*
X20673Y22373D01*
X20703Y22387D01*
X20733Y22405D01*
X20759Y22425D01*
X20782Y22447D01*
X20800Y22472D01*
X20814Y22498D01*
X20824Y22525D01*
X20830Y22554D01*
X20832Y22585D01*
X20829Y22619D01*
X20822Y22651D01*
X20810Y22683D01*
X20793Y22713D01*
X20771Y22742D01*
X20744Y22766D01*
X20714Y22787D01*
X20678Y22804D01*
X20640Y22818D01*
X20599Y22828D01*
X20556Y22833D01*
X20512Y22835D01*
X20463Y22833D01*
X20417Y22827D01*
X20373Y22817D01*
X20333Y22803D01*
X20297Y22785D01*
X20265Y22763D01*
X20238Y22737D01*
X20215Y22707D01*
X20196Y22674D01*
X20183Y22640D01*
X20174Y22603D01*
X20170Y22564D01*
X20285Y22555D01*
X20293Y22596D01*
X20306Y22631D01*
X20324Y22661D01*
X20348Y22685D01*
X20378Y22705D01*
X20415Y22718D01*
X20457Y22727D01*
X20507Y22729D01*
X20558Y22727D01*
X20601Y22719D01*
X20637Y22707D01*
X20666Y22689D01*
X20688Y22668D01*
X20703Y22645D01*
X20713Y22620D01*
X20716Y22593D01*
X20713Y22569D01*
X20707Y22548D01*
X20696Y22529D01*
X20680Y22512D01*
X20656Y22496D01*
X20618Y22480D01*
X20565Y22464D01*
X20499Y22447D01*
X20431Y22431D01*
X20375Y22416D01*
X20331Y22402D01*
X20298Y22389D01*
X20261Y22370D01*
X20229Y22348D01*
X20202Y22324D01*
X20180Y22297D01*
X20164Y22268D01*
X20152Y22236D01*
X20145Y22203D01*
X20143Y22167D01*
X20145Y22132D01*
X20153Y22097D01*
X20166Y22063D01*
X20184Y22031D01*
X20207Y22000D01*
X20235Y21974D01*
X20267Y21951D01*
X20304Y21931D01*
X20344Y21915D01*
X20386Y21904D01*
X20431Y21897D01*
X20479Y21895D01*
X20538Y21898D01*
X20592Y21904D01*
X20641Y21915D01*
X20686Y21931D01*
X20725Y21951D01*
X20760Y21976D01*
X20790Y22006D01*
X20816Y22039D01*
X20837Y22077D01*
X20853Y22116D01*
X20862Y22158D01*
X20866Y22203D01*
X20866Y22203D01*
X19978Y21911D02*
X19978Y22820D01*
X19667Y22820D01*
X19667Y22713D01*
X19858Y22713D01*
X19858Y22018D01*
X19858Y22018D01*
X19664Y22018D01*
X19621Y22019D01*
X19584Y22022D01*
X19551Y22027D01*
X19523Y22035D01*
X19499Y22044D01*
X19477Y22055D01*
X19458Y22068D01*
X19441Y22082D01*
X19421Y22105D01*
X19403Y22132D01*
X19388Y22163D01*
X19375Y22197D01*
X19364Y22235D01*
X19357Y22277D01*
X19352Y22323D01*
X19351Y22372D01*
X19354Y22439D01*
X19362Y22498D01*
X19377Y22549D01*
X19398Y22591D01*
X19422Y22626D01*
X19449Y22655D01*
X19479Y22678D01*
X19511Y22694D01*
X19539Y22702D01*
X19574Y22708D01*
X19617Y22711D01*
X19667Y22713D01*
X19667Y22820D01*
X19665Y22820D01*
X19615Y22819D01*
X19572Y22817D01*
X19534Y22813D01*
X19503Y22807D01*
X19466Y22796D01*
X19431Y22782D01*
X19399Y22763D01*
X19370Y22742D01*
X19336Y22709D01*
X19307Y22672D01*
X19282Y22632D01*
X19262Y22586D01*
X19247Y22537D01*
X19236Y22485D01*
X19229Y22429D01*
X19227Y22370D01*
X19228Y22320D01*
X19233Y22273D01*
X19240Y22228D01*
X19251Y22187D01*
X19264Y22148D01*
X19278Y22114D01*
X19295Y22082D01*
X19313Y22054D01*
X19332Y22030D01*
X19353Y22007D01*
X19374Y21988D01*
X19396Y21972D01*
X19419Y21958D01*
X19445Y21945D01*
X19474Y21935D01*
X19504Y21926D01*
X19537Y21919D01*
X19573Y21915D01*
X19610Y21912D01*
X19650Y21911D01*
X19978Y21911D01*
X19978Y21911D01*
X19161Y21911D02*
X18836Y22757D01*
X18750Y22724D01*
X18759Y22681D01*
X18771Y22637D01*
X18784Y22594D01*
X18799Y22551D01*
X18899Y22284D01*
X18899Y22284D01*
X18590Y22284D01*
X18685Y22536D01*
X18706Y22591D01*
X18723Y22640D01*
X18738Y22685D01*
X18750Y22724D01*
X18836Y22757D01*
X18812Y22820D01*
X18682Y22820D01*
X18310Y21911D01*
X18447Y21911D01*
X18553Y22186D01*
X18933Y22186D01*
X19033Y21911D01*
X19161Y21911D01*
X19161Y21911D01*
G37*
M02*